<svg width="120" height="14" viewBox="0 0 120 14" fill="none" xmlns="http://www.w3.org/2000/svg">
<g clip-path="url(#clip0_1_88)">
<path d="M6.45637 8.77165C7.38456 8.77165 8.13701 7.97673 8.13701 6.99614C8.13701 6.01556 7.38456 5.22064 6.45637 5.22064C5.52818 5.22064 4.77573 6.01556 4.77573 6.99614C4.77573 7.97673 5.52818 8.77165 6.45637 8.77165Z" fill="black"/>
<path d="M17.4474 5.03316C17.5716 4.79275 17.7198 4.56558 17.8931 4.35163C17.9547 4.27444 18.0194 4.19835 18.0894 4.12446C18.8357 3.33155 19.8159 2.93564 20.7972 2.93564C21.7784 2.93564 22.7576 3.33155 23.505 4.12446C23.5781 4.20165 23.6459 4.28106 23.7106 4.36266H26.7504C26.4373 3.55872 25.9727 2.80662 25.3589 2.15376C22.8432 -0.518315 18.7512 -0.518315 16.2354 2.15376C15.9786 2.42615 15.75 2.71398 15.5465 3.01725L16.2741 3.7848L17.4474 5.03316Z" fill="black"/>
<path d="M20.9371 6.30677V8.71748H24.2639C24.0812 9.13654 23.8296 9.53024 23.5039 9.87652C23.2137 10.1842 22.8881 10.4323 22.5404 10.6198C21.1009 11.4017 19.2909 11.1525 18.0894 9.87652C18.0789 9.86439 18.0674 9.85226 18.058 9.84013L18.057 9.84233H18.0559C18.0434 9.828 18.0299 9.81366 18.0184 9.79932L17.8461 9.61846L11.8532 3.07668L11.7269 2.93662L11.6382 2.84178L11.0327 2.1801C11.0254 2.17128 11.0181 2.16246 11.0108 2.15474V2.15364C11.0004 2.14261 10.9899 2.13158 10.9785 2.12055C10.9033 2.04115 10.8261 1.96395 10.7467 1.89007C10.6006 1.75001 10.4492 1.61988 10.2947 1.49747C9.55357 0.91299 8.72055 0.518188 7.85518 0.314171C7.83117 0.307554 7.80716 0.30204 7.78315 0.297629C7.78211 0.297629 7.78002 0.297629 7.77793 0.296526C7.72052 0.284396 7.66415 0.273368 7.60673 0.26234C7.32489 0.208303 7.03991 0.17191 6.75389 0.158677C6.54824 0.147649 6.34364 0.147649 6.13695 0.158677C5.93653 0.168602 5.73819 0.188452 5.53986 0.218228C4.66091 0.349461 3.80284 0.673683 3.0262 1.18979C2.62117 1.45887 2.23912 1.78089 1.88628 2.15474C1.25056 2.82965 0.774555 3.61374 0.461392 4.44966C0.377882 4.67132 0.30481 4.89739 0.245309 5.12567C0.231739 5.1775 0.218169 5.23044 0.205642 5.28227C0.203554 5.28889 0.20251 5.2933 0.201466 5.29661C0.192072 5.33741 0.182677 5.37711 0.173282 5.41791C0.167019 5.44548 0.160755 5.47195 0.155536 5.49952C0.15136 5.51937 0.147185 5.53922 0.144053 5.55797C0.134658 5.59987 0.126307 5.64399 0.119 5.68589C0.119 5.6892 0.117956 5.69251 0.117956 5.69471C0.108561 5.74655 0.0991665 5.79727 0.0918594 5.84911C0.0908155 5.85241 0.0908155 5.85462 0.0908155 5.85572C0.0824645 5.90976 0.0751573 5.96159 0.0678502 6.01453C0.0563675 6.09944 0.0469726 6.18215 0.0396655 6.26707C0.0365338 6.29022 0.0344461 6.31338 0.0323583 6.33654C0.0323583 6.33875 0.0323583 6.34095 0.0323583 6.34316C0.0271389 6.3972 0.0240073 6.45234 0.0187879 6.50637C-0.0031335 6.8328 -0.00417738 7.15923 0.0187879 7.48566C0.0187879 7.48896 0.0187879 7.49338 0.0187879 7.49668C0.0219196 7.54411 0.0260951 7.59263 0.0302706 7.64005C0.0302706 7.64777 0.0302706 7.65549 0.0323583 7.66431C0.0417532 7.76687 0.0532359 7.86943 0.0668063 7.97089C0.0678502 7.97971 0.0688941 7.98743 0.0699379 7.99515C0.0751573 8.02934 0.0803767 8.06462 0.0855961 8.09991C0.0887277 8.12638 0.0939471 8.15285 0.0981226 8.17932C0.102298 8.20468 0.106474 8.22894 0.110649 8.2532C0.116912 8.28959 0.123176 8.32709 0.130483 8.36238C0.132571 8.3712 0.133614 8.38002 0.135702 8.38885C0.145097 8.44068 0.155536 8.49141 0.167019 8.54214C0.176413 8.58956 0.187896 8.63698 0.199379 8.6844C0.473919 9.84344 1.03761 10.9396 1.88837 11.8439C3.14625 13.1805 4.79662 13.8488 6.45116 13.8488C7.05557 13.8488 7.65997 13.7595 8.2435 13.5808C8.25081 13.5775 8.25916 13.5753 8.26646 13.5731C8.29569 13.5643 8.32492 13.5554 8.35311 13.5455C8.38338 13.5356 8.41261 13.5246 8.44288 13.5157C9.08904 13.293 9.7091 12.9599 10.2759 12.5155V13.8477H12.8981V11.9112L12.0088 10.9661L11.8553 10.8073L11.8292 10.7797L10.2937 9.14757L9.91684 8.74836L9.90848 8.73954C9.76547 9.06376 9.57966 9.36923 9.3521 9.64934C9.33644 9.66919 9.32182 9.68904 9.30512 9.70779C9.30199 9.7111 9.29782 9.71551 9.29573 9.71882C9.25189 9.77286 9.20387 9.82579 9.15585 9.87762C7.66206 11.4623 5.234 11.4623 3.74021 9.87762C3.40722 9.52252 3.14833 9.1189 2.96357 8.6866C2.63892 7.92567 2.54497 7.07872 2.68381 6.26817C2.79446 5.61752 3.05543 4.99113 3.46567 4.44966C3.55127 4.33717 3.64209 4.2291 3.74021 4.12433C4.09409 3.74938 4.49807 3.46376 4.93336 3.26525C5.41564 3.0447 5.93235 2.93442 6.44907 2.93442C7.32071 2.93442 8.19131 3.24761 8.89697 3.87289C8.9262 3.89826 8.95542 3.92473 8.98465 3.9523L8.98987 3.96002L9.38968 4.39452C9.3949 4.40003 9.39907 4.40665 9.40429 4.41327L9.43039 4.44194L9.4377 4.44855L9.89491 4.95033L10.2958 5.39145L10.4169 5.52378L11.0912 6.26596L12.7019 8.03816V8.03926L12.8073 8.15726L12.8522 8.20578L12.8992 8.25651L12.9253 8.28518L13.2875 8.68329L14.202 9.69015V9.69125L15.5277 11.0918L15.6937 11.2671L15.8147 11.3951L16.1926 11.7943L16.2031 11.8053L16.2365 11.8417H16.2375C16.9818 12.6313 17.8628 13.1882 18.7992 13.5113C18.8305 13.5224 18.8618 13.5323 18.8931 13.5422C18.937 13.5566 18.9808 13.5698 19.0257 13.583C19.6051 13.7584 20.2022 13.8455 20.7993 13.8455C21.0936 13.8455 21.388 13.8267 21.6803 13.7881C22.6574 13.658 23.6083 13.3084 24.4528 12.6942C24.4988 12.6611 24.5457 12.6258 24.5917 12.5905C24.6 12.5839 24.6084 12.5773 24.6167 12.5707C24.6199 12.5684 24.623 12.5662 24.6261 12.564C24.7399 12.4747 24.8505 12.3821 24.9581 12.285C24.9602 12.2839 24.9622 12.2817 24.9643 12.2795C25.9978 11.3587 26.7514 10.1489 27.074 8.68109C27.1836 8.18262 27.2442 7.65549 27.2483 7.09968C27.2483 7.07762 27.2494 7.05446 27.2494 7.03241V6.30236L20.9371 6.30677Z" fill="black"/>
<path d="M33.5294 4.44758C33.8196 3.85317 34.2131 3.39551 34.7121 3.0746C35.21 2.75479 35.7664 2.59378 36.3812 2.59378C36.9178 2.59378 37.3886 2.70847 37.7905 2.93675C38.1934 3.16503 38.516 3.45396 38.7581 3.80134V2.71729H40.5901V10.3222H38.7581V9.21056C38.5243 9.56786 38.2018 9.86231 37.7905 10.0961C37.3792 10.3299 36.9053 10.4457 36.3677 10.4457C35.7612 10.4457 35.209 10.2814 34.711 9.95164C34.2131 9.6219 33.8185 9.15762 33.5283 8.55881C33.2381 7.95999 33.093 7.27074 33.093 6.49327C33.0941 5.72352 33.2392 5.04199 33.5294 4.44758ZM38.4982 5.31879C38.3249 4.98464 38.0911 4.72879 37.7967 4.55014C37.5024 4.37149 37.1861 4.28216 36.8478 4.28216C36.5096 4.28216 36.1986 4.36928 35.9125 4.54242C35.6265 4.71666 35.3948 4.97031 35.2173 5.30445C35.0398 5.6386 34.9511 6.0345 34.9511 6.49217C34.9511 6.94983 35.0398 7.35014 35.2173 7.69311C35.3948 8.03608 35.6286 8.29965 35.9188 8.48271C36.209 8.66578 36.518 8.75731 36.8478 8.75731C37.1861 8.75731 37.5013 8.66798 37.7967 8.48933C38.0911 8.31068 38.3249 8.05483 38.4982 7.72068C38.6715 7.38653 38.7581 6.98622 38.7581 6.51974C38.7581 6.05325 38.6715 5.65294 38.4982 5.31879Z" fill="black"/>
<path d="M44.1894 0.164322V10.3211H42.371V0.164322H44.1894Z" fill="black"/>
<path d="M48.7689 2.94447C49.1802 2.71067 49.65 2.59488 50.1782 2.59488C50.793 2.59488 51.3494 2.75478 51.8473 3.0757C52.3453 3.39661 52.7388 3.85096 53.03 4.44096C53.3202 5.03096 53.4653 5.71579 53.4653 6.49326C53.4653 7.27074 53.3202 7.95998 53.03 8.5588C52.7398 9.15872 52.3453 9.623 51.8473 9.95163C51.3494 10.2814 50.793 10.4457 50.1782 10.4457C49.65 10.4457 49.1844 10.331 48.7815 10.1027C48.3785 9.87444 48.0518 9.5855 47.8002 9.23812V13.946H45.9828V2.71729H47.8013V3.81567C48.0351 3.46829 48.3576 3.17716 48.7689 2.94447ZM51.3421 5.30555C51.1646 4.97141 50.9308 4.71776 50.6406 4.54352C50.3504 4.36928 50.0362 4.28326 49.699 4.28326C49.3702 4.28326 49.0602 4.37259 48.77 4.55124C48.4798 4.72989 48.2459 4.98795 48.0685 5.32651C47.891 5.66506 47.8023 6.06317 47.8023 6.52083C47.8023 6.97849 47.891 7.3766 48.0685 7.71516C48.2459 8.05372 48.4798 8.31288 48.77 8.49043C49.0602 8.66908 49.3702 8.75841 49.699 8.75841C50.0372 8.75841 50.3504 8.66688 50.6406 8.48381C50.9308 8.30075 51.1646 8.04049 51.3421 7.70193C51.5195 7.36337 51.6083 6.96085 51.6083 6.49437C51.6083 6.0345 51.5195 5.6386 51.3421 5.30555Z" fill="black"/>
<path d="M60.2996 2.98528C60.7234 3.23671 61.0554 3.60725 61.2934 4.09689C61.5314 4.58654 61.6504 5.17433 61.6504 5.86027V10.3222H59.8319V6.12163C59.8319 5.5173 59.6889 5.05302 59.4029 4.7288C59.1169 4.40457 58.7275 4.24136 58.2338 4.24136C57.7316 4.24136 57.335 4.40347 57.0448 4.7288C56.7546 5.05412 56.6095 5.5184 56.6095 6.12163V10.3222H54.791V0.164322H56.6095V3.6646C56.8433 3.33486 57.1554 3.07681 57.5448 2.88933C57.9342 2.70186 58.3674 2.60812 58.8444 2.60812C59.3904 2.60812 59.8758 2.73384 60.2996 2.98528Z" fill="black"/>
<path d="M63.3467 4.44758C63.6369 3.85317 64.0304 3.39551 64.5294 3.0746C65.0273 2.75479 65.5837 2.59378 66.1986 2.59378C66.7351 2.59378 67.2059 2.70847 67.6078 2.93675C68.0107 3.16503 68.3333 3.45396 68.5755 3.80134V2.71729H70.4075V10.3222H68.5755V9.21056C68.3416 9.56786 68.0191 9.86231 67.6078 10.0961C67.1965 10.3299 66.7226 10.4457 66.185 10.4457C65.5785 10.4457 65.0263 10.2814 64.5283 9.95164C64.0304 9.6219 63.6358 9.15762 63.3456 8.55881C63.0554 7.95999 62.9103 7.27074 62.9103 6.49327C62.9114 5.72352 63.0565 5.04199 63.3467 4.44758ZM68.3166 5.31879C68.1433 4.98464 67.9095 4.72879 67.6151 4.55014C67.3207 4.37149 67.0044 4.28216 66.6662 4.28216C66.328 4.28216 66.0169 4.36928 65.7309 4.54242C65.4449 4.71666 65.2131 4.97031 65.0357 5.30445C64.8582 5.6386 64.7695 6.0345 64.7695 6.49217C64.7695 6.94983 64.8582 7.35014 65.0357 7.69311C65.2131 8.03608 65.447 8.29965 65.7372 8.48271C66.0274 8.66578 66.3363 8.75731 66.6662 8.75731C67.0044 8.75731 67.3197 8.66798 67.6151 8.48933C67.9095 8.31068 68.1433 8.05483 68.3166 7.72068C68.4899 7.38653 68.5765 6.98622 68.5765 6.51974C68.5765 6.05325 68.4899 5.65294 68.3166 5.31879Z" fill="black"/>
<path d="M77.0476 3.21134C77.5413 3.54107 77.8962 3.95683 78.1134 4.46081V2.82756H79.0226V10.5141C79.0226 11.2 78.8817 11.8087 78.6009 12.3392C78.319 12.8696 77.9276 13.2799 77.4255 13.5677C76.9234 13.8555 76.3513 14 75.7104 14C74.8012 14 74.0454 13.7706 73.4431 13.3141C72.8407 12.8564 72.466 12.2344 72.3188 11.447H73.2155C73.371 11.9686 73.6675 12.3844 74.1059 12.6965C74.5433 13.0075 75.0778 13.163 75.7104 13.163C76.1697 13.163 76.581 13.0604 76.9442 12.8542C77.3075 12.648 77.5935 12.3436 77.8013 11.9411C78.009 11.5386 78.1134 11.0621 78.1134 10.5141V8.66136C77.8879 9.17416 77.5309 9.59763 77.0413 9.93068C76.5517 10.2648 75.9734 10.4313 75.3064 10.4313C74.6571 10.4313 74.0746 10.2714 73.5589 9.95053C73.0433 9.63072 72.6403 9.17747 72.3501 8.59188C72.0599 8.0063 71.9148 7.32918 71.9148 6.56053C71.9148 5.79188 72.0599 5.11697 72.3501 4.5358C72.6403 3.95462 73.0433 3.50689 73.5589 3.19038C74.0746 2.87499 74.6571 2.71729 75.3064 2.71729C75.9734 2.71729 76.5538 2.8827 77.0476 3.21134ZM77.7616 4.98243C77.5278 4.52477 77.2094 4.17298 76.8064 3.92595C76.4035 3.67892 75.9599 3.55541 75.4745 3.55541C74.9723 3.55541 74.5214 3.67451 74.1237 3.91272C73.7249 4.15092 73.4107 4.4961 73.1821 4.94935C72.9524 5.40259 72.8376 5.93966 72.8376 6.56163C72.8376 7.17479 72.9524 7.71295 73.1821 8.17392C73.4117 8.63599 73.726 8.98889 74.1237 9.2304C74.5224 9.47302 74.9723 9.59432 75.4745 9.59432C75.9599 9.59432 76.4035 9.47081 76.8064 9.22378C77.2094 8.97676 77.5278 8.62496 77.7616 8.1673C77.9954 7.70964 78.1123 7.1792 78.1123 6.57487C78.1123 5.97053 77.9954 5.44009 77.7616 4.98243Z" fill="black"/>
<path d="M87.4937 6.94542H81.6083C81.6344 7.51336 81.7638 7.99749 81.9976 8.40001C82.2315 8.80253 82.5384 9.1069 82.9204 9.31312C83.3014 9.51934 83.7169 9.6219 84.1679 9.6219C84.7566 9.6219 85.2524 9.47082 85.6554 9.16866C86.0583 8.86649 86.3245 8.45956 86.454 7.94676H87.4154C87.2421 8.67901 86.8715 9.27563 86.3047 9.7377C85.7368 10.1998 85.0249 10.4314 84.1679 10.4314C83.5008 10.4314 82.9027 10.2737 82.3745 9.95826C81.8463 9.64286 81.4329 9.19402 81.1333 8.61285C80.8348 8.03167 80.6855 7.35235 80.6855 6.57488C80.6855 5.79741 80.8327 5.11588 81.127 4.53029C81.4214 3.94471 81.8327 3.49587 82.3609 3.18488C82.8891 2.87389 83.4914 2.7184 84.1668 2.7184C84.8422 2.7184 85.4341 2.87389 85.9404 3.18488C86.4466 3.49587 86.8371 3.91493 87.1095 4.44097C87.382 4.967 87.5187 5.55038 87.5187 6.1911C87.5198 6.51974 87.5104 6.77118 87.4937 6.94542ZM86.2786 4.73541C86.0573 4.34172 85.7566 4.04506 85.3756 3.84325C84.9946 3.64254 84.5791 3.54109 84.1282 3.54109C83.4528 3.54109 82.8766 3.77047 82.4006 4.22702C81.9246 4.68469 81.6605 5.32982 81.6083 6.16243H86.597C86.6053 5.60442 86.4988 5.12911 86.2786 4.73541Z" fill="black"/>
<path d="M94.5868 3.52013C95.1234 4.07373 95.3927 4.87657 95.3927 5.92864V10.3222H94.496V6.03892C94.496 5.22505 94.3029 4.60197 93.9177 4.17188C93.5325 3.74179 93.0064 3.52675 92.3393 3.52675C91.6545 3.52675 91.1096 3.75613 90.7025 4.21269C90.2954 4.67035 90.0919 5.34305 90.0919 6.2308V10.3222H89.1826V2.82757H90.0919V4.10461C90.3173 3.64695 90.642 3.29736 91.0658 3.05475C91.4896 2.81213 91.9708 2.69083 92.5084 2.69083C93.3571 2.69083 94.0502 2.96763 94.5868 3.52013Z" fill="black"/>
<path d="M103.799 6.94542H97.9136C97.9397 7.51336 98.0692 7.99749 98.303 8.40001C98.5368 8.80253 98.8437 9.1069 99.2258 9.31312C99.6068 9.51934 100.022 9.6219 100.473 9.6219C101.062 9.6219 101.558 9.47082 101.961 9.16866C102.364 8.86649 102.63 8.45956 102.759 7.94676H103.721C103.547 8.67901 103.177 9.27563 102.61 9.7377C102.042 10.1998 101.33 10.4314 100.473 10.4314C99.8062 10.4314 99.208 10.2737 98.6798 9.95826C98.1516 9.64286 97.7383 9.19402 97.4387 8.61285C97.1401 8.03167 96.9908 7.35235 96.9908 6.57488C96.9908 5.79741 97.138 5.11588 97.4324 4.53029C97.7268 3.94471 98.1381 3.49587 98.6663 3.18488C99.1945 2.87389 99.7968 2.7184 100.472 2.7184C101.148 2.7184 101.739 2.87389 102.246 3.18488C102.752 3.49587 103.142 3.91493 103.415 4.44097C103.687 4.967 103.824 5.55038 103.824 6.1911C103.825 6.51974 103.816 6.77118 103.799 6.94542ZM102.584 4.73541C102.363 4.34172 102.062 4.04506 101.681 3.84325C101.3 3.64254 100.885 3.54109 100.434 3.54109C99.7582 3.54109 99.1819 3.77047 98.7059 4.22702C98.2299 4.68469 97.9658 5.32982 97.9136 6.16243H102.902C102.911 5.60442 102.805 5.12911 102.584 4.73541Z" fill="black"/>
<path d="M105.936 9.83473C105.42 9.43662 105.132 8.89405 105.072 8.20811H106.007C106.05 8.62938 106.239 8.97014 106.572 9.2304C106.905 9.49066 107.353 9.62189 107.916 9.62189C108.41 9.62189 108.797 9.49838 109.079 9.25135C109.361 9.00433 109.501 8.69775 109.501 8.33162C109.501 8.07577 109.422 7.86514 109.267 7.69972C109.111 7.5343 108.914 7.40417 108.676 7.30823C108.438 7.21228 108.115 7.10972 107.708 6.99944C107.18 6.85277 106.751 6.7072 106.422 6.56053C106.093 6.41386 105.814 6.19661 105.584 5.90878C105.354 5.62095 105.24 5.23387 105.24 4.74864C105.24 4.38251 105.344 4.04395 105.552 3.73296C105.759 3.42197 106.054 3.17495 106.435 2.99188C106.816 2.80882 107.249 2.71729 107.734 2.71729C108.496 2.71729 109.111 2.9213 109.579 3.32823C110.047 3.73517 110.298 4.29539 110.333 5.01H109.423C109.397 4.57109 109.236 4.21599 108.936 3.9458C108.637 3.67562 108.228 3.54107 107.708 3.54107C107.249 3.54107 106.876 3.65577 106.591 3.88404C106.305 4.11343 106.162 4.39684 106.162 4.7354C106.162 5.02875 106.247 5.26805 106.416 5.45553C106.585 5.643 106.795 5.78968 107.047 5.89444C107.298 6.00031 107.635 6.1161 108.06 6.24403C108.572 6.3907 108.978 6.53186 109.281 6.66971C109.584 6.80756 109.844 7.00827 110.061 7.27404C110.277 7.53981 110.39 7.89161 110.399 8.33052C110.399 8.73304 110.295 9.09255 110.087 9.40795C109.88 9.72335 109.589 9.97258 109.217 10.1556C108.844 10.3387 108.415 10.4302 107.931 10.4302C107.116 10.4313 106.452 10.2328 105.936 9.83473Z" fill="black"/>
<path d="M112.101 1.20756C111.972 1.06971 111.906 0.900985 111.906 0.699173C111.906 0.498464 111.97 0.330839 112.101 0.198503C112.23 0.0661678 112.387 0 112.569 0C112.75 0 112.907 0.0661678 113.036 0.198503C113.166 0.330839 113.231 0.498464 113.231 0.699173C113.231 0.900985 113.167 1.06971 113.036 1.20756C112.907 1.34431 112.75 1.41378 112.569 1.41378C112.387 1.41378 112.23 1.34541 112.101 1.20756ZM113.024 2.82757V10.3222H112.115V2.82757H113.024Z" fill="black"/>
<path d="M115.537 9.83473C115.022 9.43662 114.734 8.89405 114.673 8.20811H115.608C115.651 8.62938 115.84 8.97014 116.173 9.2304C116.506 9.49066 116.955 9.62189 117.518 9.62189C118.011 9.62189 118.399 9.49838 118.681 9.25135C118.962 9.00433 119.102 8.69775 119.102 8.33162C119.102 8.07577 119.024 7.86514 118.868 7.69972C118.713 7.5343 118.516 7.40417 118.278 7.30823C118.04 7.21228 117.717 7.10972 117.31 6.99944C116.782 6.85277 116.353 6.7072 116.024 6.56053C115.695 6.41386 115.415 6.19661 115.186 5.90878C114.956 5.62095 114.841 5.23387 114.841 4.74864C114.841 4.38251 114.946 4.04395 115.153 3.73296C115.361 3.42197 115.655 3.17495 116.036 2.99188C116.417 2.80882 116.851 2.71729 117.336 2.71729C118.098 2.71729 118.713 2.9213 119.181 3.32823C119.648 3.73517 119.9 4.29539 119.934 5.01H119.025C118.999 4.57109 118.837 4.21599 118.538 3.9458C118.239 3.67562 117.83 3.54107 117.31 3.54107C116.851 3.54107 116.478 3.65577 116.193 3.88404C115.907 4.11343 115.764 4.39684 115.764 4.7354C115.764 5.02875 115.849 5.26805 116.018 5.45553C116.187 5.643 116.397 5.78968 116.648 5.89444C116.9 6.00031 117.237 6.1161 117.662 6.24403C118.173 6.3907 118.579 6.53186 118.883 6.66971C119.186 6.80756 119.446 7.00827 119.663 7.27404C119.879 7.53981 119.992 7.89161 120.001 8.33052C120.001 8.73304 119.897 9.09255 119.689 9.40795C119.481 9.72335 119.191 9.97258 118.818 10.1556C118.446 10.3387 118.017 10.4302 117.532 10.4302C116.717 10.4313 116.053 10.2328 115.537 9.83473Z" fill="black"/>
</g>
<defs>
<clipPath id="clip0_1_88">
<rect width="120" height="14" fill="white"/>
</clipPath>
</defs>
</svg>
