<svg width="120" height="15" viewBox="0 0 120 15" fill="none" xmlns="http://www.w3.org/2000/svg">
<g clip-path="url(#clip0_1_187)">
<path d="M6.4564 8.88556C7.38459 8.88556 8.13704 8.08032 8.13704 7.087C8.13704 6.09368 7.38459 5.28844 6.4564 5.28844C5.52821 5.28844 4.77576 6.09368 4.77576 7.087C4.77576 8.08032 5.52821 8.88556 6.4564 8.88556Z" fill="#F2651D"/>
<path d="M17.4474 5.09852C17.5716 4.85499 17.7198 4.62486 17.8931 4.40814C17.9547 4.32994 18.0194 4.25286 18.0894 4.17802C18.8357 3.37481 19.8159 2.97376 20.7972 2.97376C21.7784 2.97376 22.7576 3.37481 23.505 4.17802C23.5781 4.25621 23.6459 4.33665 23.7106 4.41931H26.7504C26.4373 3.60493 25.9727 2.84306 25.3589 2.18173C22.8432 -0.525053 18.7512 -0.525053 16.2354 2.18173C15.9786 2.45765 15.75 2.74922 15.5465 3.05643L16.2741 3.83394L17.4474 5.09852Z" fill="white"/>
<path d="M20.9371 6.38878V8.8308H24.2639C24.0812 9.25531 23.8296 9.65412 23.5039 10.0049C23.2137 10.3166 22.8881 10.5679 22.5404 10.7578C21.1009 11.5499 19.2909 11.2974 18.0894 10.0049C18.0789 9.9926 18.0674 9.98032 18.058 9.96803L18.057 9.97026H18.0559C18.0434 9.95574 18.0299 9.94122 18.0184 9.92669L17.8461 9.74349L11.8532 3.11674L11.7269 2.97487L11.6382 2.87879L11.0327 2.20852C11.0254 2.19959 11.0181 2.19065 11.0108 2.18283V2.18171C11.0004 2.17054 10.9899 2.15937 10.9785 2.1482C10.9033 2.06777 10.8261 1.98957 10.7467 1.91472C10.6006 1.77285 10.4492 1.64103 10.2947 1.51703C9.55357 0.924953 8.72055 0.525025 7.85518 0.318358C7.83117 0.311655 7.80716 0.30607 7.78315 0.301601C7.78211 0.301601 7.78002 0.301601 7.77793 0.300484C7.72052 0.288196 7.66415 0.277025 7.60673 0.265853C7.32489 0.211115 7.03991 0.17425 6.75389 0.160844C6.54824 0.149673 6.34364 0.149673 6.13695 0.160844C5.93653 0.170898 5.73819 0.191006 5.53986 0.221169C4.66091 0.354106 3.80284 0.682539 3.0262 1.20535C2.62117 1.47793 2.23912 1.80413 1.88628 2.18283C1.25056 2.86651 0.774555 3.66078 0.461392 4.50755C0.377882 4.73209 0.30481 4.9611 0.245309 5.19235C0.231739 5.24485 0.218169 5.29847 0.205642 5.35098C0.203554 5.35768 0.20251 5.36215 0.201466 5.3655C0.192072 5.40683 0.182677 5.44705 0.173282 5.48838C0.167019 5.51631 0.160755 5.54312 0.155536 5.57105C0.15136 5.59116 0.147185 5.61126 0.144053 5.63026C0.134658 5.67271 0.126307 5.71739 0.119 5.75984C0.119 5.76319 0.117956 5.76654 0.117956 5.76878C0.108561 5.82128 0.0991665 5.87267 0.0918594 5.92517C0.0908155 5.92853 0.0908155 5.93076 0.0908155 5.93188C0.0824645 5.98662 0.0751573 6.03912 0.0678502 6.09274C0.0563675 6.17876 0.0469726 6.26254 0.0396655 6.34856C0.0365338 6.37202 0.0344461 6.39548 0.0323583 6.41894C0.0323583 6.42118 0.0323583 6.42341 0.0323583 6.42564C0.0271389 6.48038 0.0240073 6.53624 0.0187879 6.59098C-0.0031335 6.92164 -0.00417738 7.25231 0.0187879 7.58298C0.0187879 7.58633 0.0187879 7.5908 0.0187879 7.59415C0.0219196 7.64219 0.0260951 7.69134 0.0302706 7.73938C0.0302706 7.7472 0.0302706 7.75502 0.0323583 7.76395C0.0417532 7.86784 0.0532359 7.97174 0.0668063 8.07451C0.0678502 8.08345 0.0688941 8.09127 0.0699379 8.09909C0.0751573 8.13372 0.0803767 8.16947 0.0855961 8.20521C0.0887277 8.23202 0.0939471 8.25884 0.0981226 8.28565C0.102298 8.31134 0.106474 8.33592 0.110649 8.36049C0.116912 8.39736 0.123176 8.43534 0.130483 8.47109C0.132571 8.48003 0.133614 8.48896 0.135702 8.4979C0.145097 8.5504 0.155536 8.60179 0.167019 8.65318C0.176413 8.70121 0.187896 8.74925 0.199379 8.79729C0.473919 9.97138 1.03761 11.0818 1.88837 11.9978C3.14625 13.3518 4.79662 14.0288 6.45116 14.0288C7.05557 14.0288 7.65997 13.9383 8.2435 13.7573C8.25081 13.7539 8.25916 13.7517 8.26646 13.7495C8.29569 13.7405 8.32492 13.7316 8.35311 13.7215C8.38338 13.7115 8.41261 13.7003 8.44288 13.6914C9.08904 13.4657 9.7091 13.1284 10.2759 12.6782V14.0276H12.8981V12.066L12.0088 11.1086L11.8553 10.9477L11.8292 10.9198L10.2937 9.26648L9.91684 8.86208L9.90848 8.85314C9.76547 9.18158 9.57966 9.49102 9.3521 9.77477C9.33644 9.79487 9.32182 9.81498 9.30512 9.83397C9.30199 9.83732 9.29782 9.84179 9.29573 9.84514C9.25189 9.89988 9.20387 9.9535 9.15585 10.006C7.66206 11.6113 5.234 11.6113 3.74021 10.006C3.40722 9.6463 3.14833 9.23743 2.96357 8.79952C2.63892 8.02871 2.54497 7.17076 2.68381 6.34968C2.79446 5.69058 3.05543 5.05606 3.46567 4.50755C3.55127 4.39361 3.64209 4.28413 3.74021 4.178C4.09409 3.79818 4.49807 3.50885 4.93336 3.30777C5.41564 3.08434 5.93235 2.97263 6.44907 2.97263C7.32071 2.97263 8.19131 3.28989 8.89697 3.9233C8.9262 3.94899 8.95542 3.9758 8.98465 4.00373L8.98987 4.01155L9.38968 4.4517C9.3949 4.45728 9.39907 4.46398 9.40429 4.47069L9.43039 4.49973L9.4377 4.50643L9.89491 5.01472L10.2958 5.46157L10.4169 5.59562L11.0912 6.34745L12.7019 8.14266V8.14377L12.8073 8.2633L12.8522 8.31246L12.8992 8.36384L12.9253 8.39289L13.2875 8.79617L14.202 9.8161V9.81722L15.5277 11.236L15.6937 11.4136L15.8147 11.5432L16.1926 11.9476L16.2031 11.9587L16.2365 11.9956H16.2375C16.9818 12.7955 17.8628 13.3596 18.7992 13.6869C18.8305 13.6981 18.8618 13.7081 18.8931 13.7182C18.937 13.7327 18.9808 13.7461 19.0257 13.7595C19.6051 13.9371 20.2022 14.0254 20.7993 14.0254C21.0936 14.0254 21.388 14.0064 21.6803 13.9673C22.6574 13.8355 23.6083 13.4814 24.4528 12.8591C24.4988 12.8256 24.5457 12.7899 24.5917 12.7541C24.6 12.7474 24.6084 12.7407 24.6167 12.734C24.6199 12.7318 24.623 12.7295 24.6261 12.7273C24.7399 12.6368 24.8505 12.543 24.9581 12.4447C24.9602 12.4436 24.9622 12.4413 24.9643 12.4391C25.9978 11.5063 26.7514 10.2808 27.074 8.79394C27.1836 8.289 27.2442 7.75501 27.2483 7.19199C27.2483 7.16964 27.2494 7.14619 27.2494 7.12384V6.38431L20.9371 6.38878Z" fill="white"/>
<path d="M33.5294 4.50533C33.8196 3.90321 34.2131 3.4396 34.7121 3.11452C35.21 2.79056 35.7664 2.62746 36.3812 2.62746C36.9178 2.62746 37.3886 2.74364 37.7905 2.97488C38.1934 3.20612 38.516 3.49881 38.7581 3.8507V2.75257H40.5901V10.4562H38.7581V9.33017C38.5243 9.69211 38.2018 9.99038 37.7905 10.2272C37.3792 10.464 36.9053 10.5813 36.3677 10.5813C35.7612 10.5813 35.209 10.4149 34.711 10.0809C34.2131 9.74685 33.8185 9.27655 33.5283 8.66995C33.2381 8.06336 33.093 7.36516 33.093 6.57759C33.0941 5.79784 33.2392 5.10746 33.5294 4.50533ZM38.4982 5.38786C38.3249 5.04937 38.0911 4.7902 37.7967 4.60922C37.5024 4.42825 37.1861 4.33777 36.8478 4.33777C36.5096 4.33777 36.1986 4.42602 35.9125 4.6014C35.6265 4.77791 35.3948 5.03485 35.2173 5.37333C35.0398 5.71182 34.9511 6.11287 34.9511 6.57647C34.9511 7.04007 35.0398 7.44559 35.2173 7.79301C35.3948 8.14044 35.6286 8.40743 35.9188 8.59287C36.209 8.77831 36.518 8.87103 36.8478 8.87103C37.1861 8.87103 37.5013 8.78055 37.7967 8.59957C38.0911 8.4186 38.3249 8.15943 38.4982 7.82094C38.6715 7.48245 38.7581 7.07694 38.7581 6.6044C38.7581 6.13186 38.6715 5.72634 38.4982 5.38786Z" fill="white"/>
<path d="M44.1894 0.166458V10.4551H42.371V0.166458H44.1894Z" fill="white"/>
<path d="M48.7689 2.98271C49.1802 2.74588 49.65 2.62859 50.1782 2.62859C50.793 2.62859 51.3494 2.79057 51.8473 3.11565C52.3453 3.44073 52.7388 3.90098 53.03 4.49864C53.3202 5.0963 53.4653 5.79003 53.4653 6.5776C53.4653 7.36517 53.3202 8.06337 53.03 8.66996C52.7398 9.27768 52.3453 9.74798 51.8473 10.0809C51.3494 10.4149 50.793 10.5814 50.1782 10.5814C49.65 10.5814 49.1844 10.4652 48.7815 10.2339C48.3785 10.0027 48.0518 9.71 47.8002 9.35811V14.1271H45.9828V2.75259H47.8013V3.86524C48.0351 3.51334 48.3576 3.21842 48.7689 2.98271ZM51.3421 5.37446C51.1646 5.03598 50.9308 4.77904 50.6406 4.60253C50.3504 4.42603 50.0362 4.33889 49.699 4.33889C49.3702 4.33889 49.0602 4.42938 48.77 4.61035C48.4798 4.79133 48.2459 5.05273 48.0685 5.39569C47.891 5.73864 47.8023 6.14192 47.8023 6.60553C47.8023 7.06913 47.891 7.47241 48.0685 7.81537C48.2459 8.15832 48.4798 8.42084 48.77 8.6007C49.0602 8.78167 49.3702 8.87216 49.699 8.87216C50.0372 8.87216 50.3504 8.77944 50.6406 8.594C50.9308 8.40856 51.1646 8.14492 51.3421 7.80196C51.5195 7.45901 51.6083 7.05126 51.6083 6.57872C51.6083 6.11288 51.5195 5.71183 51.3421 5.37446Z" fill="white"/>
<path d="M60.2996 3.02405C60.7234 3.27875 61.0554 3.6541 61.2934 4.1501C61.5314 4.6461 61.6504 5.24153 61.6504 5.93637V10.4562H59.8319V6.20113C59.8319 5.58895 59.6889 5.11864 59.4029 4.79021C59.1169 4.46178 58.7275 4.29644 58.2338 4.29644C57.7316 4.29644 57.335 4.46066 57.0448 4.79021C56.7546 5.11976 56.6095 5.59007 56.6095 6.20113V10.4562H54.791V0.166458H56.6095V3.71219C56.8433 3.37817 57.1554 3.11677 57.5448 2.92686C57.9342 2.73695 58.3674 2.64199 58.8444 2.64199C59.3904 2.64199 59.8758 2.76934 60.2996 3.02405Z" fill="white"/>
<path d="M63.3467 4.50533C63.6369 3.90321 64.0304 3.4396 64.5294 3.11452C65.0273 2.79056 65.5837 2.62746 66.1986 2.62746C66.7351 2.62746 67.2059 2.74364 67.6078 2.97488C68.0107 3.20612 68.3333 3.49881 68.5755 3.8507V2.75257H70.4075V10.4562H68.5755V9.33017C68.3416 9.69211 68.0191 9.99038 67.6078 10.2272C67.1965 10.464 66.7226 10.5813 66.185 10.5813C65.5785 10.5813 65.0263 10.4149 64.5283 10.0809C64.0304 9.74685 63.6358 9.27655 63.3456 8.66995C63.0554 8.06336 62.9103 7.36516 62.9103 6.57759C62.9114 5.79784 63.0565 5.10746 63.3467 4.50533ZM68.3166 5.38786C68.1433 5.04937 67.9095 4.7902 67.6151 4.60922C67.3207 4.42825 67.0044 4.33777 66.6662 4.33777C66.328 4.33777 66.0169 4.42602 65.7309 4.6014C65.4449 4.77791 65.2131 5.03485 65.0357 5.37333C64.8582 5.71182 64.7695 6.11287 64.7695 6.57647C64.7695 7.04007 64.8582 7.44559 65.0357 7.79301C65.2131 8.14044 65.447 8.40743 65.7372 8.59287C66.0274 8.77831 66.3363 8.87103 66.6662 8.87103C67.0044 8.87103 67.3197 8.78055 67.6151 8.59957C67.9095 8.4186 68.1433 8.15943 68.3166 7.82094C68.4899 7.48245 68.5765 7.07694 68.5765 6.6044C68.5765 6.13186 68.4899 5.72634 68.3166 5.38786Z" fill="white"/>
<path d="M77.0476 3.25305C77.5413 3.58707 77.8962 4.00822 78.1134 4.51874V2.86429H79.0226V10.6506C79.0226 11.3455 78.8817 11.9621 78.6009 12.4994C78.319 13.0368 77.9276 13.4523 77.4255 13.7439C76.9234 14.0355 76.3513 14.1818 75.7104 14.1818C74.8012 14.1818 74.0454 13.9495 73.4431 13.487C72.8407 13.0234 72.466 12.3933 72.3188 11.5957H73.2155C73.371 12.1241 73.6675 12.5452 74.1059 12.8614C74.5433 13.1764 75.0778 13.3339 75.7104 13.3339C76.1697 13.3339 76.581 13.23 76.9442 13.0211C77.3075 12.8122 77.5935 12.5039 77.8013 12.0962C78.009 11.6884 78.1134 11.2058 78.1134 10.6506V8.77385C77.8879 9.29331 77.5309 9.72228 77.0413 10.0597C76.5517 10.3981 75.9734 10.5668 75.3064 10.5668C74.6571 10.5668 74.0746 10.4048 73.5589 10.0798C73.0433 9.75579 72.6403 9.29666 72.3501 8.70347C72.0599 8.11028 71.9148 7.42437 71.9148 6.64574C71.9148 5.86711 72.0599 5.18343 72.3501 4.59471C72.6403 4.00599 73.0433 3.55244 73.5589 3.23182C74.0746 2.91233 74.6571 2.75258 75.3064 2.75258C75.9734 2.75258 76.5538 2.92015 77.0476 3.25305ZM77.7616 5.04714C77.5278 4.58354 77.2094 4.22717 76.8064 3.97694C76.4035 3.72671 75.9599 3.60159 75.4745 3.60159C74.9723 3.60159 74.5214 3.72224 74.1237 3.96354C73.7249 4.20483 73.4107 4.55449 73.1821 5.01363C72.9524 5.47276 72.8376 6.0168 72.8376 6.64685C72.8376 7.26797 72.9524 7.81313 73.1821 8.28008C73.4117 8.74815 73.726 9.10563 74.1237 9.35028C74.5224 9.59605 74.9723 9.71893 75.4745 9.71893C75.9599 9.71893 76.4035 9.59381 76.8064 9.34358C77.2094 9.09334 77.5278 8.73698 77.7616 8.27338C77.9954 7.80977 78.1123 7.27244 78.1123 6.66026C78.1123 6.04808 77.9954 5.51074 77.7616 5.04714Z" fill="white"/>
<path d="M87.4937 7.03561H81.6083C81.6344 7.61092 81.7638 8.10134 81.9976 8.50909C82.2315 8.91683 82.5384 9.22516 82.9204 9.43406C83.3014 9.64296 83.7169 9.74685 84.1679 9.74685C84.7566 9.74685 85.2524 9.59381 85.6554 9.28772C86.0583 8.98163 86.3245 8.56941 86.454 8.04995H87.4154C87.2421 8.79172 86.8715 9.39608 86.3047 9.86415C85.7368 10.3322 85.0249 10.5668 84.1679 10.5668C83.5008 10.5668 82.9027 10.4071 82.3745 10.0876C81.8463 9.76808 81.4329 9.31341 81.1333 8.72469C80.8348 8.13597 80.6855 7.44782 80.6855 6.66026C80.6855 5.87269 80.8327 5.18231 81.127 4.58912C81.4214 3.99593 81.8327 3.54126 82.3609 3.22623C82.8891 2.91121 83.4914 2.75369 84.1668 2.75369C84.8422 2.75369 85.4341 2.91121 85.9404 3.22623C86.4466 3.54126 86.8371 3.96577 87.1095 4.49863C87.382 5.0315 87.5187 5.62245 87.5187 6.2715C87.5198 6.6044 87.5104 6.8591 87.4937 7.03561ZM86.2786 4.7969C86.0573 4.39809 85.7566 4.09759 85.3756 3.89315C84.9946 3.68984 84.5791 3.58706 84.1282 3.58706C83.4528 3.58706 82.8766 3.81942 82.4006 4.28191C81.9246 4.74552 81.6605 5.39903 81.6083 6.24245H86.597C86.6053 5.67719 86.4988 5.19571 86.2786 4.7969Z" fill="white"/>
<path d="M94.5868 3.56584C95.1234 4.12664 95.3927 4.9399 95.3927 6.00563V10.4562H94.496V6.11734C94.496 5.29291 94.3029 4.66174 93.9177 4.22606C93.5325 3.79038 93.0064 3.57254 92.3393 3.57254C91.6545 3.57254 91.1096 3.80491 90.7025 4.26739C90.2954 4.731 90.0919 5.41244 90.0919 6.31172V10.4562H89.1826V2.86429H90.0919V4.15791C90.3173 3.69431 90.642 3.34018 91.0658 3.09442C91.4896 2.84865 91.9708 2.72577 92.5084 2.72577C93.3571 2.72577 94.0502 3.00617 94.5868 3.56584Z" fill="white"/>
<path d="M103.799 7.03561H97.9136C97.9397 7.61092 98.0692 8.10134 98.303 8.50909C98.5368 8.91683 98.8437 9.22516 99.2258 9.43406C99.6068 9.64296 100.022 9.74685 100.473 9.74685C101.062 9.74685 101.558 9.59381 101.961 9.28772C102.364 8.98163 102.63 8.56941 102.759 8.04995H103.721C103.547 8.79172 103.177 9.39608 102.61 9.86415C102.042 10.3322 101.33 10.5668 100.473 10.5668C99.8062 10.5668 99.2081 10.4071 98.6799 10.0876C98.1517 9.76808 97.7383 9.31341 97.4387 8.72469C97.1401 8.13597 96.9909 7.44782 96.9909 6.66026C96.9909 5.87269 97.138 5.18231 97.4324 4.58912C97.7268 3.99593 98.1381 3.54126 98.6663 3.22623C99.1945 2.91121 99.7968 2.75369 100.472 2.75369C101.148 2.75369 101.739 2.91121 102.246 3.22623C102.752 3.54126 103.142 3.96577 103.415 4.49863C103.687 5.0315 103.824 5.62245 103.824 6.2715C103.825 6.6044 103.816 6.8591 103.799 7.03561ZM102.584 4.7969C102.363 4.39809 102.062 4.09759 101.681 3.89315C101.3 3.68984 100.885 3.58706 100.434 3.58706C99.7582 3.58706 99.182 3.81942 98.7059 4.28191C98.2299 4.74552 97.9658 5.39903 97.9136 6.24245H102.902C102.911 5.67719 102.805 5.19571 102.584 4.7969Z" fill="white"/>
<path d="M105.936 9.96246C105.42 9.55918 105.132 9.00956 105.072 8.31471H106.007C106.05 8.74145 106.239 9.08664 106.572 9.35028C106.905 9.61392 107.353 9.74686 107.916 9.74686C108.41 9.74686 108.797 9.62174 109.079 9.37151C109.361 9.12127 109.501 8.81071 109.501 8.43983C109.501 8.18066 109.422 7.96729 109.267 7.79972C109.111 7.63215 108.914 7.50033 108.676 7.40314C108.438 7.30595 108.115 7.20206 107.708 7.09035C107.18 6.94177 106.751 6.79431 106.422 6.64574C106.093 6.49716 105.814 6.27709 105.584 5.98552C105.354 5.69395 105.24 5.30184 105.24 4.81031C105.24 4.43943 105.344 4.09647 105.552 3.78144C105.759 3.46642 106.054 3.21618 106.435 3.03074C106.816 2.8453 107.249 2.75258 107.734 2.75258C108.496 2.75258 109.111 2.95925 109.579 3.37146C110.047 3.78368 110.298 4.35118 110.333 5.07507H109.423C109.397 4.63045 109.236 4.27074 108.936 3.99705C108.637 3.72335 108.228 3.58707 107.708 3.58707C107.249 3.58707 106.876 3.70325 106.591 3.93449C106.305 4.16685 106.162 4.45395 106.162 4.79691C106.162 5.09406 106.247 5.33647 106.416 5.52638C106.585 5.71629 106.795 5.86487 107.047 5.971C107.298 6.07824 107.635 6.19554 108.06 6.32512C108.572 6.4737 108.978 6.61669 109.281 6.75633C109.584 6.89597 109.844 7.09929 110.061 7.36851C110.277 7.63774 110.39 7.9941 110.399 8.43871C110.399 8.84646 110.295 9.21064 110.087 9.53014C109.88 9.84963 109.589 10.1021 109.217 10.2875C108.844 10.473 108.415 10.5657 107.931 10.5657C107.116 10.5668 106.452 10.3657 105.936 9.96246Z" fill="white"/>
<path d="M112.101 1.22324C111.972 1.0836 111.906 0.912686 111.906 0.708253C111.906 0.504938 111.97 0.335136 112.101 0.201081C112.23 0.0670271 112.387 0 112.569 0C112.75 0 112.907 0.0670271 113.036 0.201081C113.166 0.335136 113.231 0.504938 113.231 0.708253C113.231 0.912686 113.167 1.0836 113.036 1.22324C112.907 1.36177 112.75 1.43215 112.569 1.43215C112.387 1.43215 112.23 1.36288 112.101 1.22324ZM113.024 2.86429V10.4562H112.115V2.86429H113.024Z" fill="white"/>
<path d="M115.537 9.96246C115.022 9.55918 114.734 9.00956 114.673 8.31471H115.608C115.651 8.74145 115.84 9.08664 116.173 9.35028C116.506 9.61392 116.955 9.74686 117.518 9.74686C118.011 9.74686 118.399 9.62174 118.681 9.37151C118.962 9.12127 119.102 8.81071 119.102 8.43983C119.102 8.18066 119.024 7.96729 118.868 7.79972C118.713 7.63215 118.516 7.50033 118.278 7.40314C118.04 7.30595 117.717 7.20206 117.31 7.09035C116.782 6.94177 116.353 6.79431 116.024 6.64574C115.695 6.49716 115.415 6.27709 115.186 5.98552C114.956 5.69395 114.841 5.30184 114.841 4.81031C114.841 4.43943 114.946 4.09647 115.153 3.78144C115.361 3.46642 115.655 3.21618 116.036 3.03074C116.417 2.8453 116.851 2.75258 117.336 2.75258C118.098 2.75258 118.713 2.95925 119.181 3.37146C119.648 3.78368 119.9 4.35118 119.934 5.07507H119.025C118.999 4.63045 118.837 4.27074 118.538 3.99705C118.239 3.72335 117.83 3.58707 117.31 3.58707C116.851 3.58707 116.478 3.70325 116.193 3.93449C115.907 4.16685 115.764 4.45395 115.764 4.79691C115.764 5.09406 115.849 5.33647 116.018 5.52638C116.187 5.71629 116.397 5.86487 116.648 5.971C116.9 6.07824 117.237 6.19554 117.662 6.32512C118.173 6.4737 118.579 6.61669 118.883 6.75633C119.186 6.89597 119.446 7.09929 119.663 7.36851C119.879 7.63774 119.992 7.9941 120.001 8.43871C120.001 8.84646 119.897 9.21064 119.689 9.53014C119.481 9.84963 119.191 10.1021 118.818 10.2875C118.446 10.473 118.017 10.5657 117.532 10.5657C116.717 10.5668 116.053 10.3657 115.537 9.96246Z" fill="white"/>
</g>
<defs>
<clipPath id="clip0_1_187">
<rect width="120" height="14.1818" fill="white"/>
</clipPath>
</defs>
</svg>
