<svg width="17" height="17" viewBox="0 0 17 17" fill="none" xmlns="http://www.w3.org/2000/svg">
<g clip-path="url(#clip0_14_394)">
<g clip-path="url(#clip1_14_394)">
<path d="M0 2.25H16.6667V14.75H0V2.25Z" fill="#74ACDF"/>
<path d="M0 6.41669H16.6667V10.5834H0V6.41669Z" fill="white"/>
<path d="M8.2533 8.53253L8.9658 10.0825C8.9658 10.0825 8.9783 10.1125 8.9983 10.105C9.0183 10.095 9.0058 10.065 9.0058 10.065L8.4133 8.46503M8.3958 9.07003C8.3858 9.30503 8.5308 9.43503 8.5133 9.64503C8.4933 9.85753 8.6083 9.97503 8.6383 10.0575C8.6633 10.14 8.6083 10.1875 8.6308 10.2C8.6558 10.2125 8.7058 10.1475 8.6908 10.03C8.6733 9.91503 8.5858 9.88003 8.6058 9.62253C8.6258 9.36503 8.5008 9.30503 8.5308 9.07253" fill="#F6B40E"/>
<path d="M8.2533 8.53253L8.9658 10.0825C8.9658 10.0825 8.9783 10.1125 8.9983 10.105C9.0183 10.095 9.0058 10.065 9.0058 10.065L8.4133 8.46503M8.3958 9.07003C8.3858 9.30503 8.5308 9.43503 8.5133 9.64503C8.4933 9.85753 8.6083 9.97503 8.6383 10.0575C8.6633 10.14 8.6083 10.1875 8.6308 10.2C8.6558 10.2125 8.7058 10.1475 8.6908 10.03C8.6733 9.91503 8.5858 9.88003 8.6058 9.62253C8.6258 9.36503 8.5008 9.30503 8.5308 9.07253" stroke="#85340A" stroke-width="1.056"/>
<path d="M8.247 8.49943L8.3121 10.2041C8.3121 10.2041 8.31217 10.2366 8.33352 10.2373C8.35582 10.2357 8.35575 10.2032 8.35575 10.2032L8.42065 8.4983M8.17296 9.05055C8.07379 9.26384 8.158 9.43943 8.06147 9.62675C7.96167 9.81542 8.02295 9.96798 8.0191 10.0557C8.01062 10.1415 7.94163 10.1643 7.95764 10.1845C7.97595 10.2056 8.04702 10.1647 8.07812 10.0504C8.10597 9.93743 8.03852 9.8716 8.15554 9.64136C8.27256 9.41111 8.18003 9.30785 8.29672 9.10452" fill="#F6B40E"/>
<path d="M8.247 8.49943L8.3121 10.2041C8.3121 10.2041 8.31217 10.2366 8.33352 10.2373C8.35582 10.2357 8.35575 10.2032 8.35575 10.2032L8.42065 8.4983M8.17296 9.05055C8.07379 9.26384 8.158 9.43943 8.06147 9.62675C7.96167 9.81542 8.02295 9.96798 8.0191 10.0557C8.01062 10.1415 7.94163 10.1643 7.95764 10.1845C7.97595 10.2056 8.04702 10.1647 8.07812 10.0504C8.10597 9.93743 8.03852 9.8716 8.15554 9.64136C8.27256 9.41111 8.18003 9.30785 8.29672 9.10452" stroke="#85340A" stroke-width="1.056"/>
<path d="M8.25378 8.46643L7.66158 10.0663C7.66158 10.0663 7.64921 10.0963 7.66865 10.1052C7.68987 10.1122 7.70224 10.0822 7.70224 10.0822L8.41465 8.53184M7.97448 8.94726C7.80124 9.10636 7.81184 9.30082 7.65098 9.43693C7.48657 9.57305 7.48481 9.73746 7.44768 9.817C7.40702 9.89302 7.33455 9.88772 7.34162 9.91246C7.35046 9.93898 7.43177 9.92837 7.50425 9.83468C7.57319 9.74099 7.53607 9.65437 7.73229 9.48643C7.92852 9.31849 7.88255 9.18768 8.06817 9.04449" fill="#F6B40E"/>
<path d="M8.25378 8.46643L7.66158 10.0663C7.66158 10.0663 7.64921 10.0963 7.66865 10.1052C7.68987 10.1122 7.70224 10.0822 7.70224 10.0822L8.41465 8.53184M7.97448 8.94726C7.80124 9.10636 7.81184 9.30082 7.65098 9.43693C7.48657 9.57305 7.48481 9.73746 7.44768 9.817C7.40702 9.89302 7.33455 9.88772 7.34162 9.91246C7.35046 9.93898 7.43177 9.92837 7.50425 9.83468C7.57319 9.74099 7.53607 9.65437 7.73229 9.48643C7.92852 9.31849 7.88255 9.18768 8.06817 9.04449" stroke="#85340A" stroke-width="1.056"/>
<path d="M8.27272 8.43855L7.11337 9.68997C7.11337 9.68997 7.09044 9.713 7.10502 9.72861C7.12191 9.74326 7.14485 9.72023 7.14485 9.72023L8.39631 8.56054M7.83067 8.7759C7.60973 8.85659 7.54512 9.0403 7.3444 9.1045C7.14043 9.16734 7.07588 9.31855 7.01114 9.37784C6.94449 9.43251 6.87955 9.39987 6.87662 9.42544C6.87463 9.45332 6.95382 9.47464 7.05664 9.41582C7.15618 9.35564 7.15504 9.26141 7.40059 9.18134C7.64614 9.10128 7.65374 8.96283 7.88002 8.90158" fill="#F6B40E"/>
<path d="M8.27272 8.43855L7.11337 9.68997C7.11337 9.68997 7.09044 9.713 7.10502 9.72861C7.12191 9.74326 7.14485 9.72023 7.14485 9.72023L8.39631 8.56054M7.83067 8.7759C7.60973 8.85659 7.54512 9.0403 7.3444 9.1045C7.14043 9.16734 7.07588 9.31855 7.01114 9.37784C6.94449 9.43251 6.87955 9.39987 6.87662 9.42544C6.87463 9.45332 6.95382 9.47464 7.05664 9.41582C7.15618 9.35564 7.15504 9.26141 7.40059 9.18134C7.64614 9.10128 7.65374 8.96283 7.88002 8.90158" stroke="#85340A" stroke-width="1.056"/>
<path d="M8.44083 9.11005C8.45333 9.33505 8.58083 9.43505 8.55583 9.64255C8.61083 9.48005 8.47834 9.35255 8.48584 9.11255M8.29333 8.51755L8.78084 9.58255L8.37334 8.48505" fill="#85340A"/>
<path d="M8.19922 9.10476C8.12466 9.31741 8.20419 9.45859 8.10169 9.64073C8.21469 9.51165 8.14106 9.34315 8.23984 9.12429M8.28969 8.50091L8.33252 9.6714L8.37603 8.5015" fill="#85340A"/>
<path d="M7.97803 9.00736C7.82777 9.1753 7.84722 9.33617 7.68281 9.46521C7.83661 9.3892 7.83307 9.20535 8.00808 9.04095M8.29269 8.4841L7.88434 9.58188L8.37224 8.51769" fill="#85340A"/>
<path d="M7.81093 8.83279C7.60784 8.93044 7.56424 9.0865 7.36297 9.14281C7.53415 9.13144 7.60124 8.96023 7.82584 8.87532M8.30188 8.46977L7.50451 9.32772L8.36252 8.53125" fill="#85340A"/>
<path d="M8.30091 8.42004L6.75091 9.13254C6.75091 9.13254 6.72091 9.14504 6.72841 9.16504C6.73841 9.18504 6.76841 9.17254 6.76841 9.17254L8.36841 8.58004M7.76341 8.56254C7.52841 8.55254 7.39841 8.69754 7.18841 8.68004C6.97591 8.66004 6.85841 8.77504 6.77591 8.80504C6.69341 8.83004 6.64591 8.77504 6.63341 8.79754C6.62091 8.82254 6.68591 8.87254 6.80341 8.85754C6.91841 8.84004 6.95341 8.75254 7.21091 8.77254C7.46841 8.79254 7.52841 8.66754 7.76091 8.69754" fill="#F6B40E"/>
<path d="M8.30091 8.42004L6.75091 9.13254C6.75091 9.13254 6.72091 9.14504 6.72841 9.16504C6.73841 9.18504 6.76841 9.17254 6.76841 9.17254L8.36841 8.58004M7.76341 8.56254C7.52841 8.55254 7.39841 8.69754 7.18841 8.68004C6.97591 8.66004 6.85841 8.77504 6.77591 8.80504C6.69341 8.83004 6.64591 8.77504 6.63341 8.79754C6.62091 8.82254 6.68591 8.87254 6.80341 8.85754C6.91841 8.84004 6.95341 8.75254 7.21091 8.77254C7.46841 8.79254 7.52841 8.66754 7.76091 8.69754" stroke="#85340A" stroke-width="1.056"/>
<path d="M8.33388 8.41368L6.6292 8.47879C6.6292 8.47879 6.5967 8.47886 6.59598 8.5002C6.59756 8.52251 6.63006 8.52244 6.63006 8.52244L8.33501 8.58734M7.78276 8.33964C7.56948 8.24047 7.39388 8.32469 7.20656 8.22816C7.01789 8.12836 6.86533 8.18964 6.77763 8.18579C6.69184 8.17731 6.66901 8.10832 6.64885 8.12432C6.62773 8.14264 6.66865 8.2137 6.78294 8.24481C6.89589 8.27265 6.96171 8.20521 7.19195 8.32223C7.4222 8.43924 7.52547 8.34672 7.72879 8.46341" fill="#F6B40E"/>
<path d="M8.33388 8.41368L6.6292 8.47879C6.6292 8.47879 6.5967 8.47886 6.59598 8.5002C6.59756 8.52251 6.63006 8.52244 6.63006 8.52244L8.33501 8.58734M7.78276 8.33964C7.56948 8.24047 7.39388 8.32469 7.20656 8.22816C7.01789 8.12836 6.86533 8.18964 6.77763 8.18579C6.69184 8.17731 6.66901 8.10832 6.64885 8.12432C6.62773 8.14264 6.66865 8.2137 6.78294 8.24481C6.89589 8.27265 6.96171 8.20521 7.19195 8.32223C7.4222 8.43924 7.52547 8.34672 7.72879 8.46341" stroke="#85340A" stroke-width="1.056"/>
<path d="M8.36694 8.42047L6.76711 7.82827C6.76711 7.82827 6.73706 7.8159 6.72822 7.83534C6.72115 7.85655 6.7512 7.86893 6.7512 7.86893L8.30154 8.58134M7.88611 8.14116C7.72701 7.96792 7.53256 7.97853 7.39644 7.81766C7.26032 7.65326 7.09592 7.65149 7.01637 7.61437C6.94036 7.57371 6.94566 7.50123 6.92091 7.5083C6.89439 7.51714 6.905 7.59846 6.99869 7.67094C7.09238 7.73988 7.179 7.70276 7.34694 7.89898C7.51488 8.0952 7.64569 8.04924 7.78888 8.23486" fill="#F6B40E"/>
<path d="M8.36694 8.42047L6.76711 7.82827C6.76711 7.82827 6.73706 7.8159 6.72822 7.83534C6.72115 7.85655 6.7512 7.86893 6.7512 7.86893L8.30154 8.58134M7.88611 8.14116C7.72701 7.96792 7.53256 7.97853 7.39644 7.81766C7.26032 7.65326 7.09592 7.65149 7.01637 7.61437C6.94036 7.57371 6.94566 7.50123 6.92091 7.5083C6.89439 7.51714 6.905 7.59846 6.99869 7.67094C7.09238 7.73988 7.179 7.70276 7.34694 7.89898C7.51488 8.0952 7.64569 8.04924 7.78888 8.23486" stroke="#85340A" stroke-width="1.056"/>
<path d="M8.39482 8.43941L7.1434 7.28006C7.1434 7.28006 7.12037 7.25712 7.10476 7.27171C7.09011 7.2886 7.11314 7.31153 7.11314 7.31153L8.27283 8.563M8.05748 7.99736C7.97679 7.77642 7.79307 7.7118 7.72888 7.51109C7.66604 7.30711 7.51482 7.24257 7.45554 7.17783C7.40087 7.11117 7.4335 7.04624 7.40793 7.0433C7.38005 7.04132 7.35873 7.12051 7.41756 7.22332C7.47773 7.32287 7.57197 7.32172 7.65203 7.56728C7.73209 7.81283 7.87054 7.82043 7.9318 8.04671" fill="#F6B40E"/>
<path d="M8.39482 8.43941L7.1434 7.28006C7.1434 7.28006 7.12037 7.25712 7.10476 7.27171C7.09011 7.2886 7.11314 7.31153 7.11314 7.31153L8.27283 8.563M8.05748 7.99736C7.97679 7.77642 7.79307 7.7118 7.72888 7.51109C7.66604 7.30711 7.51482 7.24257 7.45554 7.17783C7.40087 7.11117 7.4335 7.04624 7.40793 7.0433C7.38005 7.04132 7.35873 7.12051 7.41756 7.22332C7.47773 7.32287 7.57197 7.32172 7.65203 7.56728C7.73209 7.81283 7.87054 7.82043 7.9318 8.04671" stroke="#85340A" stroke-width="1.056"/>
<path d="M7.72339 8.60752C7.49839 8.62002 7.39839 8.74752 7.19089 8.72252C7.35339 8.77752 7.48089 8.64502 7.72089 8.65252M8.31589 8.46002L7.25089 8.94752L8.34839 8.54002" fill="#85340A"/>
<path d="M7.72868 8.36591C7.51602 8.29135 7.37484 8.37088 7.1927 8.26837C7.32179 8.38137 7.49029 8.30775 7.70915 8.40652M8.33252 8.45637L7.16203 8.49921L8.33193 8.54272" fill="#85340A"/>
<path d="M7.82595 8.14472C7.65801 7.99446 7.49715 8.0139 7.3681 7.8495C7.44411 8.0033 7.62796 7.99976 7.79236 8.17477M8.34921 8.45938L7.25143 8.05103L8.31562 8.53893" fill="#85340A"/>
<path d="M8.00065 7.97762C7.903 7.77453 7.74693 7.73093 7.69062 7.52966C7.702 7.70084 7.8732 7.76793 7.95812 7.99253M8.36366 8.46857L7.50571 7.6712L8.30219 8.52921" fill="#85340A"/>
<path d="M8.41333 8.46747L7.70083 6.91747C7.70083 6.91747 7.68833 6.88747 7.66833 6.89497C7.64833 6.90497 7.66083 6.93497 7.66083 6.93497L8.25333 8.53497M8.27083 7.92997C8.28083 7.69497 8.13583 7.56497 8.15333 7.35497C8.17333 7.14247 8.05833 7.02497 8.02833 6.94247C8.00333 6.85997 8.05833 6.81247 8.03583 6.79997C8.01083 6.78747 7.96083 6.85247 7.97583 6.96997C7.99333 7.08497 8.08083 7.11997 8.06083 7.37747C8.04083 7.63497 8.16583 7.69497 8.13583 7.92747" fill="#F6B40E"/>
<path d="M8.41333 8.46747L7.70083 6.91747C7.70083 6.91747 7.68833 6.88747 7.66833 6.89497C7.64833 6.90497 7.66083 6.93497 7.66083 6.93497L8.25333 8.53497M8.27083 7.92997C8.28083 7.69497 8.13583 7.56497 8.15333 7.35497C8.17333 7.14247 8.05833 7.02497 8.02833 6.94247C8.00333 6.85997 8.05833 6.81247 8.03583 6.79997C8.01083 6.78747 7.96083 6.85247 7.97583 6.96997C7.99333 7.08497 8.08083 7.11997 8.06083 7.37747C8.04083 7.63497 8.16583 7.69497 8.13583 7.92747" stroke="#85340A" stroke-width="1.056"/>
<path d="M8.41963 8.50057L8.35452 6.79589C8.35452 6.79589 8.35446 6.76339 8.33311 6.76267C8.3108 6.76425 8.31087 6.79675 8.31087 6.79675L8.24598 8.5017M8.49367 7.94945C8.59284 7.73616 8.50862 7.56057 8.60516 7.37325C8.70495 7.18458 8.64367 7.03202 8.64753 6.94432C8.656 6.85853 8.72499 6.83569 8.70899 6.81553C8.69068 6.79442 8.61961 6.83534 8.5885 6.94963C8.56066 7.06257 8.62811 7.1284 8.51109 7.35864C8.39407 7.58889 8.48659 7.69215 8.3699 7.89548" fill="#F6B40E"/>
<path d="M8.41963 8.50057L8.35452 6.79589C8.35452 6.79589 8.35446 6.76339 8.33311 6.76267C8.3108 6.76425 8.31087 6.79675 8.31087 6.79675L8.24598 8.5017M8.49367 7.94945C8.59284 7.73616 8.50862 7.56057 8.60516 7.37325C8.70495 7.18458 8.64367 7.03202 8.64753 6.94432C8.656 6.85853 8.72499 6.83569 8.70899 6.81553C8.69068 6.79442 8.61961 6.83534 8.5885 6.94963C8.56066 7.06257 8.62811 7.1284 8.51109 7.35864C8.39407 7.58889 8.48659 7.69215 8.3699 7.89548" stroke="#85340A" stroke-width="1.056"/>
<path d="M8.41284 8.53357L9.00504 6.93374C9.00504 6.93374 9.01742 6.90369 8.99797 6.89485C8.97676 6.88778 8.96439 6.91783 8.96439 6.91783L8.25197 8.46816M8.69215 8.05274C8.86539 7.89364 8.85478 7.69918 9.01565 7.56307C9.18005 7.42695 9.18182 7.26254 9.21894 7.183C9.2596 7.10698 9.33208 7.11228 9.32501 7.08754C9.31617 7.06102 9.23485 7.07163 9.16238 7.16532C9.09343 7.25901 9.13055 7.34563 8.93433 7.51357C8.73811 7.68151 8.78407 7.81232 8.59846 7.95551" fill="#F6B40E"/>
<path d="M8.41284 8.53357L9.00504 6.93374C9.00504 6.93374 9.01742 6.90369 8.99797 6.89485C8.97676 6.88778 8.96439 6.91783 8.96439 6.91783L8.25197 8.46816M8.69215 8.05274C8.86539 7.89364 8.85478 7.69918 9.01565 7.56307C9.18005 7.42695 9.18182 7.26254 9.21894 7.183C9.2596 7.10698 9.33208 7.11228 9.32501 7.08754C9.31617 7.06102 9.23485 7.07163 9.16238 7.16532C9.09343 7.25901 9.13055 7.34563 8.93433 7.51357C8.73811 7.68151 8.78407 7.81232 8.59846 7.95551" stroke="#85340A" stroke-width="1.056"/>
<path d="M8.3939 8.56145L9.55326 7.31003C9.55326 7.31003 9.57619 7.287 9.56161 7.27139C9.54471 7.25674 9.52178 7.27977 9.52178 7.27977L8.27031 8.43946M8.83596 8.2241C9.0569 8.14341 9.12151 7.9597 9.32222 7.8955C9.5262 7.83266 9.59075 7.68145 9.65549 7.62216C9.72214 7.56749 9.78707 7.60013 9.79001 7.57456C9.79199 7.54668 9.71281 7.52536 9.60999 7.58418C9.51044 7.64436 9.51159 7.73859 9.26604 7.81866C9.02048 7.89872 9.01289 8.03717 8.7866 8.09842" fill="#F6B40E"/>
<path d="M8.3939 8.56145L9.55326 7.31003C9.55326 7.31003 9.57619 7.287 9.56161 7.27139C9.54471 7.25674 9.52178 7.27977 9.52178 7.27977L8.27031 8.43946M8.83596 8.2241C9.0569 8.14341 9.12151 7.9597 9.32222 7.8955C9.5262 7.83266 9.59075 7.68145 9.65549 7.62216C9.72214 7.56749 9.78707 7.60013 9.79001 7.57456C9.79199 7.54668 9.71281 7.52536 9.60999 7.58418C9.51044 7.64436 9.51159 7.73859 9.26604 7.81866C9.02048 7.89872 9.01289 8.03717 8.7866 8.09842" stroke="#85340A" stroke-width="1.056"/>
<path d="M8.22579 7.88995C8.21329 7.66495 8.08579 7.56495 8.11079 7.35745C8.05579 7.51995 8.18829 7.64745 8.18079 7.88745M8.37329 8.48245L7.88579 7.41745L8.29329 8.51495" fill="#85340A"/>
<path d="M8.46741 7.89524C8.54196 7.68259 8.46244 7.54141 8.56494 7.35927C8.45194 7.48835 8.52556 7.65685 8.42679 7.87571M8.37694 8.49909L8.33411 7.3286L8.29059 8.4985" fill="#85340A"/>
<path d="M8.6886 7.99264C8.83886 7.8247 8.81941 7.66383 8.98381 7.53479C8.83002 7.6108 8.83355 7.79465 8.65854 7.95905M8.37393 8.5159L8.78229 7.41812L8.29438 8.48231" fill="#85340A"/>
<path d="M8.8557 8.16721C9.05879 8.06956 9.10238 7.9135 9.30365 7.85719C9.13248 7.86856 9.06539 8.03977 8.84078 8.12468M8.36474 8.53023L9.16212 7.67228L8.3041 8.46875" fill="#85340A"/>
<path d="M8.36572 8.57996L9.91572 7.86746C9.91572 7.86746 9.94572 7.85496 9.93822 7.83496C9.92822 7.81496 9.89822 7.82746 9.89822 7.82746L8.29822 8.41996M8.90322 8.43746C9.13822 8.44746 9.26822 8.30246 9.47822 8.31996C9.69072 8.33996 9.80822 8.22496 9.89072 8.19496C9.97322 8.16996 10.0207 8.22496 10.0332 8.20246C10.0457 8.17746 9.98072 8.12746 9.86322 8.14246C9.74822 8.15996 9.71322 8.24746 9.45572 8.22746C9.19822 8.20746 9.13822 8.33246 8.90572 8.30246" fill="#F6B40E"/>
<path d="M8.36572 8.57996L9.91572 7.86746C9.91572 7.86746 9.94572 7.85496 9.93822 7.83496C9.92822 7.81496 9.89822 7.82746 9.89822 7.82746L8.29822 8.41996M8.90322 8.43746C9.13822 8.44746 9.26822 8.30246 9.47822 8.31996C9.69072 8.33996 9.80822 8.22496 9.89072 8.19496C9.97322 8.16996 10.0207 8.22496 10.0332 8.20246C10.0457 8.17746 9.98072 8.12746 9.86322 8.14246C9.74822 8.15996 9.71322 8.24746 9.45572 8.22746C9.19822 8.20746 9.13822 8.33246 8.90572 8.30246" stroke="#85340A" stroke-width="1.056"/>
<path d="M8.33275 8.58632L10.0374 8.52121C10.0374 8.52121 10.0699 8.52114 10.0706 8.4998C10.0691 8.47749 10.0366 8.47756 10.0366 8.47756L8.33162 8.41266M8.88386 8.66036C9.09715 8.75953 9.27274 8.67531 9.46006 8.77184C9.64873 8.87164 9.8013 8.81036 9.889 8.81421C9.97478 8.82269 9.99762 8.89168 10.0178 8.87568C10.0389 8.85736 9.99798 8.7863 9.88368 8.75519C9.77074 8.72735 9.70492 8.79479 9.47467 8.67777C9.24443 8.56076 9.14116 8.65328 8.93784 8.53659" fill="#F6B40E"/>
<path d="M8.33275 8.58632L10.0374 8.52121C10.0374 8.52121 10.0699 8.52114 10.0706 8.4998C10.0691 8.47749 10.0366 8.47756 10.0366 8.47756L8.33162 8.41266M8.88386 8.66036C9.09715 8.75953 9.27274 8.67531 9.46006 8.77184C9.64873 8.87164 9.8013 8.81036 9.889 8.81421C9.97478 8.82269 9.99762 8.89168 10.0178 8.87568C10.0389 8.85736 9.99798 8.7863 9.88368 8.75519C9.77074 8.72735 9.70492 8.79479 9.47467 8.67777C9.24443 8.56076 9.14116 8.65328 8.93784 8.53659" stroke="#85340A" stroke-width="1.056"/>
<path d="M8.29968 8.57953L9.89951 9.17173C9.89951 9.17173 9.92956 9.1841 9.9384 9.16466C9.94547 9.14345 9.91542 9.13107 9.91542 9.13107L8.36509 8.41866M8.78052 8.85884C8.93961 9.03208 9.13407 9.02147 9.27019 9.18234C9.4063 9.34674 9.57071 9.34851 9.65026 9.38563C9.72627 9.42629 9.72097 9.49877 9.74572 9.4917C9.77223 9.48286 9.76163 9.40154 9.66793 9.32906C9.57424 9.26012 9.48762 9.29724 9.31968 9.10102C9.15175 8.9048 9.02093 8.95076 8.87774 8.76514" fill="#F6B40E"/>
<path d="M8.29968 8.57953L9.89951 9.17173C9.89951 9.17173 9.92956 9.1841 9.9384 9.16466C9.94547 9.14345 9.91542 9.13107 9.91542 9.13107L8.36509 8.41866M8.78052 8.85884C8.93961 9.03208 9.13407 9.02147 9.27019 9.18234C9.4063 9.34674 9.57071 9.34851 9.65026 9.38563C9.72627 9.42629 9.72097 9.49877 9.74572 9.4917C9.77223 9.48286 9.76163 9.40154 9.66793 9.32906C9.57424 9.26012 9.48762 9.29724 9.31968 9.10102C9.15175 8.9048 9.02093 8.95076 8.87774 8.76514" stroke="#85340A" stroke-width="1.056"/>
<path d="M8.2718 8.56059L9.52323 9.71994C9.52323 9.71994 9.54626 9.74288 9.56186 9.72829C9.57651 9.7114 9.55348 9.68847 9.55348 9.68847L8.39379 8.437M8.60915 9.00264C8.68984 9.22358 8.87355 9.2882 8.93775 9.48891C9.00059 9.69289 9.1518 9.75743 9.21109 9.82217C9.26576 9.88883 9.23312 9.95376 9.25869 9.9567C9.28657 9.95868 9.30789 9.87949 9.24907 9.77668C9.18889 9.67713 9.09466 9.67828 9.0146 9.43272C8.93453 9.18717 8.79609 9.17957 8.73483 8.95329" fill="#F6B40E"/>
<path d="M8.2718 8.56059L9.52323 9.71994C9.52323 9.71994 9.54626 9.74288 9.56186 9.72829C9.57651 9.7114 9.55348 9.68847 9.55348 9.68847L8.39379 8.437M8.60915 9.00264C8.68984 9.22358 8.87355 9.2882 8.93775 9.48891C9.00059 9.69289 9.1518 9.75743 9.21109 9.82217C9.26576 9.88883 9.23312 9.95376 9.25869 9.9567C9.28657 9.95868 9.30789 9.87949 9.24907 9.77668C9.18889 9.67713 9.09466 9.67828 9.0146 9.43272C8.93453 9.18717 8.79609 9.17957 8.73483 8.95329" stroke="#85340A" stroke-width="1.056"/>
<path d="M8.94324 8.39248C9.16824 8.37998 9.26824 8.25248 9.47574 8.27748C9.31324 8.22248 9.18574 8.35498 8.94574 8.34748M8.35074 8.53998L9.41574 8.05248L8.31824 8.45998" fill="#85340A"/>
<path d="M8.93795 8.63409C9.1506 8.70865 9.29178 8.62912 9.47392 8.73163C9.34484 8.61863 9.17634 8.69225 8.95748 8.59348M8.3341 8.54363L9.50459 8.50079L8.33469 8.45728" fill="#85340A"/>
<path d="M8.84067 8.85528C9.00861 9.00554 9.16948 8.9861 9.29853 9.1505C9.22251 8.9967 9.03866 9.00024 8.87426 8.82523M8.31741 8.54062L9.4152 8.94897L8.351 8.46107" fill="#85340A"/>
<path d="M8.66598 9.02238C8.76363 9.22547 8.91969 9.26907 8.976 9.47034C8.96463 9.29916 8.79342 9.23207 8.70851 9.00747M8.30296 8.53143L9.16091 9.3288L8.36444 8.47079" fill="#85340A"/>
<path d="M8.33337 9.19531C8.71738 9.19531 9.02869 8.88401 9.02869 8.5C9.02869 8.11599 8.71738 7.80469 8.33337 7.80469C7.94936 7.80469 7.63806 8.11599 7.63806 8.5C7.63806 8.88401 7.94936 9.19531 8.33337 9.19531Z" fill="#F6B40E" stroke="#85340A" stroke-width="1.4"/>
<path d="M8.56775 8.35156C8.52348 8.35156 8.4766 8.3724 8.45056 8.41406C8.50264 8.46354 8.62244 8.46615 8.70317 8.40885C8.68611 8.39075 8.66553 8.37632 8.64268 8.36647C8.61984 8.35662 8.59523 8.35155 8.57035 8.35156H8.56775ZM8.56775 8.36198C8.61462 8.36198 8.6589 8.38281 8.6641 8.40365C8.61202 8.46354 8.52608 8.45573 8.47139 8.41406C8.49744 8.3776 8.5339 8.36198 8.57035 8.36198H8.56775Z" fill="#843511"/>
<path d="M8.57814 8.31769C8.50783 8.31769 8.49221 8.33331 8.46096 8.36196C8.42971 8.388 8.41148 8.38279 8.40887 8.388C8.40106 8.39321 8.40887 8.40883 8.41669 8.40363C8.42971 8.39842 8.45054 8.388 8.48179 8.36196C8.51304 8.33592 8.54689 8.33592 8.57814 8.33592C8.6745 8.33592 8.72658 8.41404 8.737 8.40883C8.75002 8.40363 8.68492 8.31769 8.57814 8.31769Z" fill="#85340A"/>
<path d="M8.77087 8.35158C8.64848 8.24481 8.49223 8.22658 8.40629 8.30731C8.3865 8.33335 8.37312 8.36368 8.36723 8.39586C8.35681 8.45836 8.37504 8.52346 8.42192 8.59117L8.40108 8.60158C8.35942 8.52086 8.34379 8.43752 8.35942 8.35679L8.37504 8.2969C8.49223 8.20054 8.65369 8.19273 8.77087 8.34898V8.35158Z" fill="#85340A"/>
<path d="M8.56775 8.4505C8.59364 8.4505 8.61462 8.42951 8.61462 8.40363C8.61462 8.37774 8.59364 8.35675 8.56775 8.35675C8.54186 8.35675 8.52087 8.37774 8.52087 8.40363C8.52087 8.42951 8.54186 8.4505 8.56775 8.4505Z" fill="#85340A"/>
<path d="M8.70569 8.43492C8.61454 8.50523 8.5234 8.50002 8.47131 8.46877C8.41923 8.43492 8.41923 8.4245 8.42965 8.4245C8.44006 8.4245 8.45048 8.43492 8.49215 8.45835C8.53642 8.47919 8.59892 8.47919 8.70569 8.43492Z" fill="#85340A"/>
<path d="M8.22917 8.59637C8.22193 8.59808 8.21521 8.60149 8.20955 8.60631C8.20389 8.61113 8.19945 8.61723 8.19662 8.6241C8.19378 8.63097 8.19262 8.63842 8.19322 8.64583C8.19383 8.65324 8.19619 8.6604 8.20012 8.66671C8.20404 8.67303 8.2094 8.67832 8.21577 8.68216C8.22214 8.68599 8.22933 8.68825 8.23675 8.68876C8.24417 8.68927 8.2516 8.688 8.25843 8.68507C8.26526 8.68214 8.2713 8.67762 8.27604 8.6719C8.29322 8.68255 8.31312 8.68798 8.33333 8.68752H8.33854C8.35417 8.68752 8.38021 8.68492 8.39844 8.6719C8.40625 8.68492 8.42187 8.69012 8.4375 8.69012C8.44993 8.69116 8.46227 8.68722 8.47179 8.67916C8.48131 8.6711 8.48725 8.65959 8.48828 8.64716C8.48932 8.63472 8.48537 8.62239 8.47731 8.61287C8.46926 8.60334 8.45774 8.59741 8.44531 8.59637C8.45833 8.60158 8.46615 8.612 8.46615 8.62762C8.46615 8.63591 8.46285 8.64386 8.45699 8.64972C8.45113 8.65558 8.44318 8.65887 8.4349 8.65887C8.42661 8.65887 8.41866 8.65558 8.4128 8.64972C8.40694 8.64386 8.40365 8.63591 8.40365 8.62762C8.39748 8.64048 8.3879 8.6514 8.37597 8.65921C8.36403 8.66701 8.35019 8.6714 8.33594 8.6719C8.32214 8.67094 8.30884 8.66634 8.2974 8.65856C8.28596 8.65078 8.27679 8.64011 8.27083 8.62762C8.27083 8.64585 8.25521 8.65887 8.23698 8.65887C8.22135 8.65887 8.20573 8.64325 8.20573 8.62762C8.20573 8.612 8.21354 8.60158 8.22656 8.59637H8.22917ZM8.28125 8.737C8.22656 8.737 8.20313 8.78908 8.15625 8.81773C8.18229 8.80731 8.20312 8.78648 8.24219 8.76565C8.27865 8.74481 8.3099 8.77085 8.33333 8.77085C8.35417 8.77085 8.38542 8.74481 8.42448 8.76565C8.46094 8.78648 8.48437 8.80731 8.51042 8.81773C8.46094 8.78648 8.4401 8.7396 8.38542 8.7396C8.375 8.7396 8.35417 8.74481 8.33333 8.75523L8.28125 8.737Z" fill="#85340A"/>
<path d="M8.26042 8.80207C8.23958 8.80207 8.21354 8.80728 8.17188 8.8177C8.26823 8.79686 8.28906 8.83072 8.33333 8.83072C8.375 8.83072 8.39844 8.79686 8.49219 8.8177C8.38802 8.78645 8.36458 8.80728 8.33333 8.80728C8.3125 8.80728 8.29688 8.79947 8.26042 8.80207Z" fill="#85340A"/>
<path d="M8.17708 8.8177H8.15625C8.26823 8.83072 8.21615 8.89583 8.33333 8.89583C8.45052 8.89583 8.39844 8.83072 8.51042 8.8177C8.39323 8.80729 8.42969 8.8776 8.33333 8.8776C8.24219 8.8776 8.27083 8.8177 8.17708 8.8177Z" fill="#85340A"/>
<path d="M8.42965 8.99217C8.42965 8.96661 8.4195 8.9421 8.40143 8.92403C8.38336 8.90596 8.35885 8.89581 8.33329 8.89581C8.30774 8.89581 8.28323 8.90596 8.26516 8.92403C8.24709 8.9421 8.23694 8.96661 8.23694 8.99217C8.24203 8.97043 8.25431 8.95105 8.27181 8.93718C8.2893 8.92331 8.31097 8.91576 8.33329 8.91576C8.35562 8.91576 8.37729 8.92331 8.39478 8.93718C8.41227 8.95105 8.42456 8.97043 8.42965 8.99217Z" fill="#85340A"/>
<path d="M7.901 8.35158C8.0234 8.24481 8.17965 8.22658 8.26558 8.30731C8.28537 8.33335 8.29876 8.36368 8.30465 8.39586C8.31506 8.45836 8.29683 8.52346 8.24996 8.59117L8.27079 8.60158C8.31246 8.52086 8.32808 8.43752 8.31246 8.35679L8.29683 8.2969C8.17965 8.20054 8.01819 8.19273 7.901 8.34898V8.35158Z" fill="#85340A"/>
<path d="M8.09373 8.31769C8.16404 8.31769 8.17967 8.33331 8.21092 8.36196C8.24217 8.388 8.2604 8.38279 8.263 8.388C8.27081 8.39321 8.263 8.40883 8.25519 8.40363C8.24217 8.39842 8.22133 8.388 8.19008 8.36196C8.15883 8.33592 8.12498 8.33592 8.09373 8.33592C7.99738 8.33592 7.94529 8.41404 7.93488 8.40883C7.92186 8.40363 7.98696 8.31769 8.09373 8.31769Z" fill="#85340A"/>
<path d="M8.0885 8.35156C8.04423 8.35156 7.99736 8.3724 7.97131 8.41406C8.0234 8.46354 8.14319 8.46615 8.22392 8.40885C8.20686 8.39075 8.18628 8.37632 8.16344 8.36647C8.1406 8.35662 8.11598 8.35155 8.09111 8.35156H8.0885ZM8.0885 8.36198C8.13538 8.36198 8.17965 8.38281 8.18486 8.40365C8.13277 8.46354 8.04683 8.45573 7.99215 8.41406C8.01819 8.3776 8.05465 8.36198 8.09111 8.36198H8.0885Z" fill="#843511"/>
<path d="M8.09631 8.4505C8.1222 8.4505 8.14319 8.42951 8.14319 8.40363C8.14319 8.37774 8.1222 8.35675 8.09631 8.35675C8.07042 8.35675 8.04944 8.37774 8.04944 8.40363C8.04944 8.42951 8.07042 8.4505 8.09631 8.4505Z" fill="#85340A"/>
<path d="M7.96619 8.43492C8.05733 8.50523 8.14848 8.50002 8.20056 8.46877C8.25264 8.43492 8.25265 8.4245 8.24223 8.4245C8.23181 8.4245 8.2214 8.43492 8.17973 8.45835C8.13546 8.47919 8.07296 8.47919 7.96619 8.43492Z" fill="#85340A"/>
</g>
</g>
<defs>
<clipPath id="clip0_14_394">
<rect width="17" height="17" fill="white"/>
</clipPath>
<clipPath id="clip1_14_394">
<rect width="16.6667" height="12.5" fill="white" transform="translate(0 2.25)"/>
</clipPath>
</defs>
</svg>
