<svg width="17" height="17" viewBox="0 0 17 17" fill="none" xmlns="http://www.w3.org/2000/svg">
<path d="M4.05217 5.86328H0.691406V16.7266H4.05217V5.86328Z" fill="#1B1B1B"/>
<path d="M2.35525 4.44322C3.45184 4.44322 4.34331 3.54386 4.34331 2.43938C4.34331 1.33491 3.45184 0.435547 2.35525 0.435547C1.25866 0.435547 0.367188 1.33491 0.367188 2.43938C0.367188 3.54386 1.25866 4.44322 2.35525 4.44322Z" fill="#1B1B1B"/>
<path d="M9.42978 11.0299C9.42978 9.4994 10.1319 8.59215 11.4809 8.59215C12.7195 8.59215 13.3112 9.46785 13.3112 11.0299V16.7337H16.6562V9.85441C16.6562 6.94333 15.0074 5.53906 12.7038 5.53906C10.4001 5.53906 9.42978 7.33778 9.42978 7.33778V5.87041H6.20312V16.7337H9.42978V11.0299Z" fill="#1B1B1B"/>
</svg>
