<svg width="19" height="15" viewBox="0 0 19 15" fill="none" xmlns="http://www.w3.org/2000/svg">
<path d="M0.859452 12.6759C2.42939 13.6857 4.29911 14.2695 6.30295 14.2695C12.8983 14.2695 16.6219 8.69979 16.401 3.69808C17.0953 3.20107 17.6948 2.56994 18.1761 1.85992C17.5371 2.14393 16.8507 2.33327 16.1328 2.42005C16.8665 1.97826 17.4266 1.28401 17.6948 0.455654C17.0085 0.865888 16.2511 1.15779 15.4386 1.31557C14.7916 0.621325 13.8686 0.195312 12.843 0.195312C10.5473 0.195312 8.86691 2.33327 9.37971 4.558C6.42917 4.40811 3.80998 2.99595 2.0586 0.842221C1.12768 2.43582 1.57736 4.52644 3.15519 5.58359C2.57139 5.56781 2.02704 5.40213 1.54581 5.14179C1.50636 6.79062 2.68973 8.329 4.39378 8.66823C3.89677 8.80235 3.34453 8.83391 2.79229 8.73135C3.24197 10.1435 4.55945 11.1691 6.11361 11.2006C4.62256 12.3682 2.73706 12.8968 0.851562 12.668L0.859452 12.6759Z" fill="#1B1B1B"/>
</svg>
