<svg width="21" height="15" viewBox="0 0 21 15" fill="none" xmlns="http://www.w3.org/2000/svg">
<path d="M20.2559 2.57637C20.0192 1.69279 19.3329 1.00644 18.4572 0.769763C16.8715 0.34375 10.5128 0.34375 10.5128 0.34375C10.5128 0.34375 4.1542 0.34375 2.56848 0.769763C1.69279 1.00644 1.00644 1.70068 0.769763 2.57637C0.34375 4.16998 0.34375 7.49919 0.34375 7.49919C0.34375 7.49919 0.34375 10.8284 0.769763 12.422C1.00644 13.3056 1.69279 13.9919 2.56848 14.2286C4.1542 14.6546 10.5128 14.6546 10.5128 14.6546C10.5128 14.6546 16.8715 14.6546 18.4572 14.2286C19.3329 13.9919 20.0192 13.2977 20.2559 12.422C20.6819 10.8284 20.6819 7.49919 20.6819 7.49919C20.6819 7.49919 20.6819 4.16998 20.2559 2.57637ZM8.43799 10.5207V4.47765L13.7474 7.49919L8.43799 10.5207Z" fill="#1B1B1B"/>
</svg>
